<?xml version="1.0" encoding="UTF-8"?>
<svg width="32px" height="45px" viewBox="0 0 32 45" version="1.1" xmlns="http://www.w3.org/2000/svg" xmlns:xlink="http://www.w3.org/1999/xlink">
    <!-- Generator: Sketch 50.2 (55047) - http://www.bohemiancoding.com/sketch -->
    <title>A Logo</title>
    <desc>Created with Sketch.</desc>
    <defs></defs>
    <g id="Page-1" stroke="none" stroke-width="1" fill="none" fill-rule="evenodd">
        <g id="Welcome" transform="translate(-23.000000, -211.000000)" fill="#000000">
            <g id="FIrst-Chat" transform="translate(23.000000, 208.000000)">
                <g id="A-Logo" transform="translate(0.000000, 3.000000)">
                    <path d="M6.51497006,18.5893262 L6.51497006,6.47853219 C6.51497006,6.13533476 6.80546108,5.8603133 7.14481437,5.88986266 C12.5305868,6.35782403 17.216,10.8802275 17.216,16.3758283 L17.216,18.6482318 C17.216,18.7440258 17.1389701,18.8216652 17.0439281,18.8216652 L6.74548503,18.8216652 C6.6182515,18.8216652 6.51497006,18.7177597 6.51497006,18.5893262 M23.6729102,31.0000558 L23.7309701,16.3758283 C23.7309701,8.68874678 18.3097485,2.17108584 11.2373653,0.0273090129 C10.9805988,-0.0507167382 10.7025629,0.0431459227 10.5373892,0.256171674 L6.51056287,5.44662232 L6.22639521,5.81299571 L0.333988024,13.4079528 C0.117652695,13.6868369 0,14.0308069 0,14.3850129 L0,40.1985966 C0,40.4651202 0.214419162,40.6810429 0.478658683,40.6810429 L6.03631138,40.6810429 C6.3005509,40.6810429 6.51497006,40.4651202 6.51497006,40.1985966 L6.51497006,24.6548627 C6.51497006,24.5266223 6.6182515,24.4225236 6.74548503,24.4225236 L11.9963593,24.4225236 C12.6537964,24.4225236 13.2744431,24.1175665 13.679521,23.5955279 L17.001006,19.3141545 C17.071521,19.223382 17.216,19.2735966 17.216,19.388897 L17.216,29.9092403 C17.216,44.8096481 24.7768144,44.8096481 31.9996168,44.8096481 L31.9996168,44.7882103 C28.1529102,44.7882103 23.6729102,39.9560215 23.6729102,31.0000558" id="Fill-1"></path>
                </g>
            </g>
        </g>
    </g>
</svg>