<?xml version="1.0" encoding="UTF-8"?>
<svg width="26px" height="36px" viewBox="0 0 26 36" version="1.1" xmlns="http://www.w3.org/2000/svg" xmlns:xlink="http://www.w3.org/1999/xlink">
    <!-- Generator: Sketch 50.2 (55047) - http://www.bohemiancoding.com/sketch -->
    <title>A Logo</title>
    <desc>Created with Sketch.</desc>
    <defs></defs>
    <g id="Page-1" stroke="none" stroke-width="1" fill="none" fill-rule="evenodd">
        <g id="Welcome" transform="translate(-26.000000, -216.000000)" fill="#000000">
            <g id="FIrst-Chat" transform="translate(26.000000, 208.000000)">
                <g id="A-Logo" transform="translate(0.000000, 8.000000)">
                    <path d="M5.27761194,14.9034426 L5.27761194,5.19397161 C5.27761194,4.91882323 5.51293134,4.6983329 5.78783284,4.72202323 C10.1507104,5.09719742 13.9462448,8.72290065 13.9462448,13.1288361 L13.9462448,14.9506684 C13.9462448,15.0274684 13.8838448,15.0897135 13.8068537,15.0897135 L5.46434627,15.0897135 C5.36127761,15.0897135 5.27761194,15.0064103 5.27761194,14.9034426 M19.1768239,24.8533781 L19.2238567,13.1288361 C19.2238567,6.96594581 14.8322627,1.74060387 9.10310448,0.0218941935 C8.89510448,-0.0406606452 8.66987463,0.0345909677 8.53607164,0.205378065 L5.27404179,4.36666839 L5.04384478,4.66039742 L0.270555224,10.7494297 C0.0953074627,10.9730168 0,11.2487845 0,11.5327587 L0,32.2280361 C0,32.4417135 0.173695522,32.6148232 0.387749254,32.6148232 L4.88986269,32.6148232 C5.10391642,32.6148232 5.27761194,32.4417135 5.27761194,32.2280361 L5.27761194,19.7663071 C5.27761194,19.6634942 5.36127761,19.5800361 5.46434627,19.5800361 L9.71794627,19.5800361 C10.2505194,19.5800361 10.7532896,19.3355458 11.0814328,18.9170168 L13.7720836,15.4845523 C13.829206,15.4117781 13.9462448,15.4520361 13.9462448,15.5444748 L13.9462448,23.978849 C13.9462448,35.9248103 20.0710687,35.9248103 25.9220776,35.9248103 L25.9220776,35.9076232 C22.8059582,35.9076232 19.1768239,32.0335587 19.1768239,24.8533781" id="Fill-1"></path>
                </g>
            </g>
        </g>
    </g>
</svg>